<svg id="Layer_1" data-name="Layer 1" xmlns="http://www.w3.org/2000/svg" viewBox="0 0 126.01 126.01"><defs><style>.cls-1{fill:#33495b;}.cls-2{fill:#304658;}.cls-3{fill:#10ceb3;}.cls-4{fill:#314759;}.cls-5{fill:#14cfb4;}.cls-6{fill:#19d0b6;}.cls-7{fill:#32475a;}.cls-8{fill:#394d5f;}.cls-9{fill:#2bd4bb;}.cls-10{fill:#2ad3bb;}.cls-11{fill:#415566;}.cls-12{fill:#3f5364;}.cls-13{fill:#3d5162;}.cls-14{fill:#3d5163;}.cls-15{fill:#35d6bf;}.cls-16{fill:#4fdbc7;}</style></defs><path class="cls-1" d="M0,110.78l.55-.4c.75-.51,1.58-.54,2,.23a2.14,2.14,0,0,1,0,1.85c-.45.77-1.29.74-2,.22-.19-.13-.36-.28-.54-.43Z"/><path class="cls-2" d="M53.51,64.38c-3.32.44-6.64.84-9.95,1.35a5.26,5.26,0,0,1-4.14-.84C35.77,62.34,32,60,28.27,57.52c-.84-.54-1.63-1.12-1.18-2.24s1.32-1,2.29-.82c4.16.61,8.32,1.34,12.51,1.69a39.46,39.46,0,0,0,6.83-.49c1-.09,1.94-.25,3.15-.42-2.3-1.86-4.38-3.69-6.61-5.31a6.89,6.89,0,0,1-2.95-4.66c-.77-4.3-1.81-8.55-2.74-12.82,0-.12,0-.25-.06-.37a1.48,1.48,0,0,1,.75-2c.91-.43,1.54,0,2.08.76,2.11,2.91,4.37,5.73,6.34,8.74s5,5.15,7.7,7.48c.65.55,1.32,1.06,2,1.57.45-2.62.79-5.16,1.33-7.66a48,48,0,0,1,1.53-4.91c.28-.83.65-1.66,1.72-1.64s1.33.81,1.63,1.59A36.86,36.86,0,0,1,67.1,47.23c0,.44.09.89.14,1.5.36-.25.63-.4.86-.59.67-.54,1.3-1.13,2-1.63a33.93,33.93,0,0,0,8.39-8.84c1.53-2.32,3.28-4.5,4.91-6.75.53-.73,1.14-1.24,2.06-.84s1,1.16.8,2.07c-1.11,5-2.16,10.07-3.31,15.09a3.16,3.16,0,0,1-1.09,1.54c-2.57,2.13-5.18,4.21-7.93,6.43,4.76.7,9.27,1.46,13.91.48,3-.63,6.06-.95,9.11-1.28a2.2,2.2,0,0,1,1.68.85A1.32,1.32,0,0,1,98,57.15c-4.3,2.83-8.6,5.67-12.93,8.46a2.49,2.49,0,0,1-1.51.24c-3.77-.46-7.53-1-11.6-1.51-.66,3-1.46,6-2,9.06A69.28,69.28,0,0,0,71,99.5c.24,1.08.61,1.6,1.85,1.72a11.57,11.57,0,0,1,8,4.49A11.11,11.11,0,0,0,90.27,110c7.37-.08,14.74,0,22.1,0a4.9,4.9,0,0,1,.86,0c.83.17,1.43.72,1.21,1.54a3.07,3.07,0,0,1-1.26,1.38c-.24.17-.71,0-1.08,0h-99c-1.24,0-1.84-.5-1.86-1.46s.6-1.5,1.81-1.52h4.05c6.27,0,12.53,0,18.79,0A10.58,10.58,0,0,0,44.69,106a12.42,12.42,0,0,1,8.78-4.83c.56-.05.94-.14,1.11-.84a67.5,67.5,0,0,0-.83-35.4A5.31,5.31,0,0,0,53.51,64.38ZM80.65,110c-.88-1-1.64-1.9-2.44-2.76a9.2,9.2,0,0,0-7.06-3.15c-1.9,0-2.13-.16-2.6-2a72.63,72.63,0,0,1-2-25.93,61.36,61.36,0,0,1,3-13.5c.33-.94.85-1.58,2-1.42,2.47.33,4.95.62,7.41,1,4.75.73,4.74.76,8.79-1.89l2.64-1.75a5.48,5.48,0,0,0-1.94,0,33.27,33.27,0,0,1-6.07.67c-3.92-.25-7.8-.87-11.7-1.36-.81-.1-1.67-.18-1.93-1.2s.39-1.5,1-2q4.74-3.8,9.46-7.63A2.43,2.43,0,0,0,80.13,46c.53-2.14,1-4.3,1.43-6.46a3.36,3.36,0,0,0-.11-.84c-1,1.38-1.88,2.57-2.76,3.74A15.33,15.33,0,0,1,76.62,45c-3.17,2.71-6.4,5.36-9.66,8a2.18,2.18,0,0,1-1.83.41,2.5,2.5,0,0,1-.91-1.78c-.15-1.51,0-3-.14-4.54-.22-2.06-.63-4.1-1-6.15l-.35,0c-.05.15-.1.3-.14.45a37,37,0,0,0-1.09,10.21,2.28,2.28,0,0,1-.81,1.72A1.86,1.86,0,0,1,59,53.07C54,48.82,48.3,45.3,44.88,39.42a6.74,6.74,0,0,0-.94-.93c.56,2.53,1,4.67,1.53,6.79a3.66,3.66,0,0,0,1.09,1.78c3.12,2.59,6.29,5.11,9.45,7.65.66.53,1.27,1.06,1,2s-1.15,1.06-2,1.16c-1.86.25-3.73.46-5.6.7-3.6.46-7.2,1.07-10.83.15a24.78,24.78,0,0,0-3.13-.38,62.88,62.88,0,0,0,6,4.19,2.07,2.07,0,0,0,1.26.23c3.61-.46,7.21-.95,10.82-1.44,1.89-.25,2.14-.12,2.74,1.72,4.3,13.14,4.18,26.37.73,39.66a1.68,1.68,0,0,1-2,1.37,8.65,8.65,0,0,0-6.73,2.4c-1.12,1-2.11,2.24-3.25,3.48Z"/><path class="cls-3" d="M20.87,60.22c1.4.26,2.51.52,3.64.68a1.79,1.79,0,0,1,1.7,1.89c.06,1.13.13,2.27.22,3.66l3.79-2c.43-.23.87-.46,1.31-.66a1.37,1.37,0,0,1,2,.65A1.34,1.34,0,0,1,33,66.38c-2.4,1.31-4.81,2.62-7.27,3.82-1.06.52-2-.19-2.1-1.44s-.22-2.78-.26-4.17c0-.64-.23-.93-.91-1-1.37-.19-2.73-.48-4.09-.74-2-.38-2.37-1.52-1.1-3l2.32-2.7s0-.08.11-.26l-3.77-3.53c-.59-.54-1.27-1.2-.77-2a2.77,2.77,0,0,1,1.74-1c1.6-.28,3.23-.37,5-.55-.14-1.29-.37-2.53-.38-3.77,0-.67.12-1.66.55-1.93a2.71,2.71,0,0,1,2.1.09c1.47.62,2.85,1.43,4.41,2.24.91-1.14,1.81-2.29,2.71-3.43,1.23-1.55,2.4-1.4,3.17.43q1.36,3.21,2.69,6.44c.5,1.23.28,2.06-.59,2.42s-1.63,0-2.15-1.23c-.64-1.46-1.26-2.92-1.89-4.38,0,0-.06,0-.18-.12l-1.8,2.25c-1,1.23-1.38,1.32-2.81.58-.87-.45-1.74-.9-2.62-1.34-.06,0-.15,0-.34,0,.09.91.2,1.79.28,2.68a1.56,1.56,0,0,1-1.53,1.94L20,53l1.79,1.65c2.06,1.89,2.07,2.09.21,4.25C21.65,59.28,21.34,59.66,20.87,60.22Z"/><path class="cls-3" d="M101.06,47.83l-2.82,1.45c-1.65.84-2,.78-3.09-.65l-1.79-2.24c-.68,1.6-1.3,3.09-1.94,4.57-.54,1.26-1.31,1.7-2.22,1.29s-1-1.21-.53-2.45c.9-2.19,1.8-4.38,2.73-6.56.68-1.61,1.89-1.77,3-.42,1,1.17,1.87,2.35,2.85,3.59,1.57-.82,3-1.66,4.54-2.33a2.35,2.35,0,0,1,1.9-.07,2.42,2.42,0,0,1,.63,1.8c0,1.29-.25,2.58-.41,3.94,1.79.19,3.5.3,5.19.59a2.2,2.2,0,0,1,1.55,1,2.26,2.26,0,0,1-.64,1.77c-1.23,1.3-2.59,2.48-3.95,3.75l2.45,2.85c1.33,1.56.92,2.68-1.11,3.08-1.37.26-2.74.46-4.09.8a1.35,1.35,0,0,0-.81.9c-.17,1.37-.19,2.77-.3,4.16s-1.1,2-2.39,1.38c-2.27-1.14-4.5-2.34-6.73-3.53a1.44,1.44,0,0,1-.76-2.14c.51-.93,1.33-.95,2.21-.49,1.54.82,3.09,1.62,4.82,2.53.08-1.3.16-2.39.2-3.48a1.91,1.91,0,0,1,1.91-2.1c1.08-.11,2.14-.41,3.42-.66l-1.73-2.09c-1-1.17-.93-1.74.19-2.81l2.15-2a2,2,0,0,0,.09-.29c-1-.12-2.07-.21-3.08-.35-1.48-.21-1.87-.75-1.7-2.25C100.87,49.63,101,48.87,101.06,47.83Z"/><path class="cls-3" d="M56.85,28.85c.19.92.38,1.84.59,2.75a1.77,1.77,0,0,1-1.12,2.28c-.85.37-1.67.81-2.61,1.26,1.37,1.12,2.6,2.13,3.84,3.13.79.65,1.18,1.39.49,2.32-.56.76-1.43.77-2.36,0q-2.74-2.19-5.43-4.41c-1.26-1-1.14-2.13.3-2.87,1.23-.63,2.47-1.22,3.75-1.84-.37-1.6-.77-3.09-1-4.62a2.13,2.13,0,0,1,.36-1.74,2.47,2.47,0,0,1,1.87-.23A28.51,28.51,0,0,1,58.75,26c.48-1.37,1-2.66,1.38-4,.27-.83.51-1.71,1.56-1.82s1.49.79,1.92,1.59c.65,1.22,1.31,2.44,2,3.76,1.09-.58,2.11-1.15,3.15-1.67,1.41-.7,2.47-.05,2.43,1.53s-.18,3.18-.28,4.88c1.34.44,2.65.86,3.95,1.31,1.68.57,2,1.6.75,2.92-1.77,1.94-3.55,3.86-5.33,5.78-.92,1-1.71,1.1-2.44.42s-.66-1.45.24-2.45c1.29-1.43,2.6-2.83,4-4.38-1-.34-1.87-.67-2.76-.91a1.85,1.85,0,0,1-1.5-2.29c.11-.93.14-1.87.22-3-.63.31-1.14.55-1.63.81-1.74.92-2.2.79-3.11-.9l-1.19-2.15c-.23.68-.39,1.12-.55,1.56-.92,2.69-1.13,2.79-3.76,1.84-.27-.09-.55-.14-.82-.22l-.15-.13Z"/><path class="cls-4" d="M84.49,22c1.32-1.38,2.48-2.71,3.78-3.88a2.79,2.79,0,0,1,2-.75c1,.13,1,1.12,1,2,0,1.78,0,3.57,0,5.4h4.41c1.74,0,2.38,1,1.53,2.55S95.4,30.57,94.56,32c1.24,1.32,2.38,2.54,3.53,3.75s.89,2.37-.7,2.85c-2.77.82-5.57,1.59-8.35,2.39-1,.27-1.73.12-2.1-.89s.16-1.67,1.27-2c2-.58,4-1.13,6.19-1.76-.92-.89-1.65-1.65-2.45-2.33a1.91,1.91,0,0,1-.42-2.8c.68-1.05,1.25-2.17,1.92-3.37-.87,0-1.58,0-2.29,0-2.26.1-2.64-.24-2.69-2.54,0-.94,0-1.87,0-3.17l-2.61,2.54c-1.22,1.18-1.82,1.17-3,0-.61-.64-1.21-1.29-2-2.06-.37,1.52-.7,2.81-1,4.11a1.64,1.64,0,0,1-1.82,1.44h-4l.13-2.9a1.12,1.12,0,0,1,.28-.15c.92-.07,2.09.17,2.69-.3s.49-1.65.71-2.52.43-1.83.67-2.74c.45-1.65,1.67-2,2.88-.73C82.42,19.81,83.37,20.83,84.49,22Z"/><path class="cls-4" d="M31.2,32c-.82-1.42-1.74-3-2.64-4.61s-.31-2.67,1.61-2.65l3.8,0a2.33,2.33,0,0,0,.47-.2c0-1.6,0-3.3,0-5a4.53,4.53,0,0,1,.16-1.33,1.43,1.43,0,0,1,2.54-.49c1.38,1.34,2.67,2.76,4.1,4.26,1.09-1.14,2-2.19,3-3.1A2.4,2.4,0,0,1,46,18.23a2.3,2.3,0,0,1,1.19,1.45c.52,1.75.89,3.55,1.33,5.37l1.53.1.29,3c-1,0-2,0-3,0a1.52,1.52,0,0,1-1.52-1.34c-.29-1.31-.63-2.61-1-4.28-.77.86-1.39,1.58-2,2.26-1,1-1.69,1.06-2.71.06-.83-.82-1.62-1.69-2.42-2.53l-.36.16c0,1.16,0,2.33,0,3.5-.06,1.47-.62,1.95-2.08,1.93-.9,0-1.8,0-2.84,0,.53.95,1,1.9,1.57,2.83,1.13,2,1.12,2.11-.49,3.65-.64.61-1.3,1.2-2.13,2L37.1,38c.27.08.55.15.82.25a1.39,1.39,0,0,1,.89,1.88,1.34,1.34,0,0,1-1.75.94c-3-.82-6-1.65-9-2.54a1.47,1.47,0,0,1-.6-2.6C28.7,34.67,29.91,33.4,31.2,32Z"/><path class="cls-5" d="M66.07,119.06c-.35,1.22.1,1.5,1.07,1.46,1.67,0,3.35,0,5,0,1.26,0,2,.6,2,1.54s-.76,1.47-2,1.47q-8.84,0-17.67,0c-1.27,0-2-.55-2-1.47s.7-1.53,2.07-1.55,2.78,0,4.17,0c1,0,1.42-.24,1-1.46H48.75a2.5,2.5,0,0,1-1.31-.17,1.46,1.46,0,0,1,0-2.73c.3-.23.86-.15,1.3-.15q14.13,0,28.24,0c.45,0,1-.08,1.31.15a2.18,2.18,0,0,1,1,1.36c0,.47-.51,1-1,1.37a2.36,2.36,0,0,1-1.3.17H66.07Z"/><path class="cls-6" d="M40.44,116c.94,0,1.87,0,2.81,0s1.67.53,1.65,1.56a1.46,1.46,0,0,1-1.62,1.48c-1.91,0-3.83,0-5.74,0a1.46,1.46,0,0,1-1.6-1.51c0-1,.68-1.52,1.68-1.54S39.5,116,40.44,116Z"/><path class="cls-6" d="M85.46,116c.9,0,1.8,0,2.69,0s1.68.55,1.67,1.56a1.47,1.47,0,0,1-1.62,1.49c-1.91,0-3.83,0-5.74,0a1.45,1.45,0,0,1-1.6-1.5c0-1,.67-1.52,1.67-1.55S84.48,116,85.46,116Z"/><path class="cls-7" d="M7,113c-1.77,0-2.48-.41-2.52-1.44S5.23,110,7,110c.4,0,.81,0,1.22,0a1.41,1.41,0,0,1,1.45,1.5A1.38,1.38,0,0,1,8.22,113C7.82,113,7.41,113,7,113Z"/><path class="cls-7" d="M118.72,110.05a7.2,7.2,0,0,1,1.23,0,1.39,1.39,0,0,1,1.3,1.51,1.36,1.36,0,0,1-1.39,1.42c-.77,0-1.55,0-2.33,0a1.38,1.38,0,0,1-1.48-1.46,1.4,1.4,0,0,1,1.45-1.5c.4,0,.81,0,1.22,0Z"/><path class="cls-8" d="M61.88,7.62a2.22,2.22,0,0,1-2.29-2.21,2.19,2.19,0,0,1,2.12-2.25,2.26,2.26,0,0,1,2.37,2.15A2.26,2.26,0,0,1,61.88,7.62Zm1.49-2.31c-.73-.48-1.19-1-1.56-1s-.74.67-1.11,1c.4.37.76,1,1.21,1S62.68,5.85,63.37,5.31Z"/><path class="cls-9" d="M43.93,10.64l1.41.38-1.5.51.79,1.12c-1.15.73-.88-.77-1.51-.84l-.77,1.36c-.81-.87.27-1.24.26-1.62L41.12,11l1.5-.36-.79-1.21c1.15-.75.85.72,1.37.84a.63.63,0,0,0,.2-.1l.94-.94Z"/><path class="cls-10" d="M114.21,35.82l.6.94c-1,.81-.79-.59-1.42-.67l-.7,1-.37-.06.37-1.41-1.12-.07-.17-.32,1.32-.54-.55-1,.23-.31,1.12,1,.93-1,.33.25-.65,1.22,1.4.4Z"/><path class="cls-1" d="M124.32,110a1.48,1.48,0,0,1,1.43,1.52,1.43,1.43,0,0,1-1.59,1.45,1.36,1.36,0,0,1-1.36-1.55C122.84,110.53,123.44,110.12,124.32,110Z"/><path class="cls-11" d="M27.9,3.77a1.46,1.46,0,0,1-1.53,1.44A1.43,1.43,0,0,1,24.9,3.63a1.43,1.43,0,0,1,1.57-1.38A1.46,1.46,0,0,1,27.9,3.77Zm-1.54,1c.34-.45.69-.71.68-1s-.37-.52-.57-.78c-.26.25-.65.45-.74.75S26,4.27,26.36,4.74Z"/><path class="cls-12" d="M100.08,4.43a1.44,1.44,0,0,1,1.41-1.51,1.4,1.4,0,0,1,1.58,1.35,1.47,1.47,0,0,1-1.46,1.61A1.49,1.49,0,0,1,100.08,4.43Zm1.42-1c-.29.48-.61.78-.57,1s.42.48.64.71c.24-.27.6-.52.66-.83S101.86,3.82,101.5,3.39Z"/><path class="cls-13" d="M84.94,15.1a1.43,1.43,0,0,1-1.43-1.42A1.45,1.45,0,0,1,85,12.12a1.42,1.42,0,0,1,1.46,1.48A1.5,1.5,0,0,1,84.94,15.1Zm0-.52c.37-.41.8-.7.76-.88s-.44-.54-.68-.81c-.24.23-.63.44-.67.7S84.61,14.13,84.9,14.58Z"/><path class="cls-14" d="M11.29,36.67a1.42,1.42,0,0,1-1.53-1.41,1.45,1.45,0,0,1,1.48-1.57,1.43,1.43,0,0,1,1.48,1.48A1.41,1.41,0,0,1,11.29,36.67Zm.93-1.48c-.43-.33-.74-.75-.94-.7s-.5.48-.75.74c.24.22.48.59.73.61S11.79,35.5,12.22,35.19Z"/><path class="cls-15" d="M119.19,13.59l1,1,.68-1v3.2l-.7-.9-1,1-.28-.27.64-1-1.26-.14v-.38l1.25-.16-.63-1Z"/><path class="cls-16" d="M6.2,12.37c-.68,1-1.45.23-2.16,0l.55-1.06H5.67Z"/></svg>