<svg id="Layer_1" data-name="Layer 1" xmlns="http://www.w3.org/2000/svg" viewBox="0 0 126.01 126.01"><defs><style>.cls-1{fill:#33495b;}.cls-2{fill:#304558;}.cls-3{fill:#10ceb3;}.cls-4{fill:#14cfb4;}.cls-5{fill:#19d0b6;}.cls-6{fill:#32475a;}.cls-7{fill:#384d5f;}.cls-8{fill:#2ed4bc;}.cls-9{fill:#2bd4bb;}.cls-10{fill:#425667;}.cls-11{fill:#30d5bd;}.cls-12{fill:#3e5264;}.cls-13{fill:#3d5162;}.cls-14{fill:#4edbc6;}</style></defs><path class="cls-1" d="M126,112.5l-.55.43c-.74.51-1.58.55-2-.22a2.18,2.18,0,0,1,0-1.85c.45-.78,1.29-.75,2-.23l.55.39Z"/><path class="cls-2" d="M70.29,76.9c.31,4.06.64,8.13.94,12.2s.56,8.15.84,12.26c4.91,1,7.88,4,9,8.92h31.41c.37,0,.86-.14,1.08,0,.48.4,1.14,1,1.13,1.46s-.68,1-1.17,1.42c-.23.18-.71,0-1.08,0H13.81c-.28,0-.57,0-.86,0a1.36,1.36,0,0,1-1.43-1.49A1.4,1.4,0,0,1,13,110.29c.33,0,.66,0,1,0H45.21a10.8,10.8,0,0,1,9-8.92q.87-12.49,1.73-25l.16-3.06a2.11,2.11,0,0,0-.81-2.43c-4.11-3.69-8.16-7.45-12.21-11.2-1.38-1.28-1.63-2.71-.77-4s2.36-1.72,4.11-1c1,.42,2,.88,3,1.32l7.68,3.29c.09-1.67.25-3.17.23-4.67a2.21,2.21,0,0,0-.66-1.5c-2.13-1.84-4.34-3.6-6.52-5.4a2.87,2.87,0,0,1-1-3.19,2.74,2.74,0,0,1,2.47-2.09,4.64,4.64,0,0,1,1.89.34c1.68.58,3.33,1.24,5.07,1.89.48-2.46.94-4.74,1.36-7,.47-2.5,1.49-3.67,3.23-3.65s2.69,1.17,3.16,3.71c.43,2.28.89,4.55,1.37,7,1.78-.67,3.43-1.32,5.12-1.91a4.45,4.45,0,0,1,1.89-.31,2.72,2.72,0,0,1,2.42,2.12,2.88,2.88,0,0,1-1,3.18c-2.18,1.8-4.36,3.58-6.54,5.39-.27.22-.67.53-.66.79,0,1.75.18,3.49.29,5.33.58-.23,1-.39,1.41-.57,3.19-1.37,6.36-2.77,9.56-4.11a3,3,0,0,1,4.27,2.14,3.16,3.16,0,0,1-1.22,3c-3.89,3.57-7.72,7.2-11.68,10.69-1.18,1-1.75,2-1.26,3.56ZM80.54,57.69l-9.58,4c-1.49.63-3,1.28-4.56,2-.21-3.76-.42-7.34-.57-10.92a1.48,1.48,0,0,1,.54-1c1.34-1.14,2.71-2.24,4.07-3.35l2.8-2.31-.19-.33-7.61,2.89-2.19-11-.26,0-2.18,11-7.79-3-.13.32c2.3,1.88,4.62,3.74,6.89,5.65a1.7,1.7,0,0,1,.63,1.18c-.14,3.54-.35,7.09-.55,10.77l-2.1-.87-12-5.09-.66-.26.51.43q6.45,6,12.91,11.9a2,2,0,0,1,.77,1.78c-.23,2.57-.36,5.15-.54,7.72l-1.38,20c-.25,3.66-.48,7.31-.72,11H69.66c-.25-3.67-.47-7.26-.72-10.85Q68,85.51,67,71.67a2.09,2.09,0,0,1,.75-1.9c4.33-4,8.61-7.93,12.9-11.91l.3-.25-.1-.14ZM54,104.66a6.73,6.73,0,0,0-5.51,5.56h5.14Zm18.35,0c.13,1.86.26,3.71.39,5.61h4.67a3.4,3.4,0,0,0,.46-.06C77.43,107.47,74.86,104.87,72.3,104.68Z"/><path class="cls-3" d="M56.06,73.27l-.16,3.06a10.68,10.68,0,0,1-6-1,1,1,0,0,0-1.37.19c-3.43,3.28-7.43,4.28-11.84,2.44s-6.77-5.37-7-10.21A1.18,1.18,0,0,0,29,66.58c-5.64-2.85-8.42-8.22-7.59-14.61.71-5.53,5.09-10,11-11.23a1.62,1.62,0,0,0,.91-1,13,13,0,0,1,10.32-9.85,29.32,29.32,0,0,1,4.48-.33c2.35-7.79,7.52-12.24,16-12,6.62.18,11,4.17,14,12a35,35,0,0,1,4.78.43,12.75,12.75,0,0,1,10,9.7,1.43,1.43,0,0,0,1.35,1.23,13.44,13.44,0,0,1,10.66,11,13.66,13.66,0,0,1-7.28,14.55,1.75,1.75,0,0,0-1.1,1.74,10.79,10.79,0,0,1-7,9.83c-4.27,1.76-8.2.87-11.57-2.23a1.52,1.52,0,0,0-1.87-.31c-1.89.61-3.85,1-5.78,1.45,0-1,0-2,0-3A12,12,0,0,0,76,72.12c1.67-.94,2-.88,3.16.6a7.77,7.77,0,0,0,9.12,2.53,8.31,8.31,0,0,0,5.22-8.36c-.17-1.87-.06-2,1.67-2.69a10.62,10.62,0,0,0,6.72-11.69,10.36,10.36,0,0,0-9.55-8.86c-1.57-.13-1.92-.45-2.15-2-1-6.44-6.3-10.09-12.73-8.74-1.3.27-1.86-.14-2.16-1.45a22.3,22.3,0,0,0-1-3.65,12.23,12.23,0,0,0-23.32,3c-.32,2-.81,2.41-2.62,2a9.93,9.93,0,0,0-12,7.37c-.51,2.35-1.2,3.8-3.81,3.55a1.09,1.09,0,0,0-.24.07,10.38,10.38,0,0,0-8,9.24c-.35,5.2,2.2,9.34,6.88,11.13,1.61.62,1.76.87,1.58,2.51a8.33,8.33,0,0,0,5.08,8.45,7.79,7.79,0,0,0,9.24-2.47c1.22-1.52,1.48-1.58,3.15-.64A8.05,8.05,0,0,0,56.06,73.27Z"/><path class="cls-4" d="M66.32,119.31c-.31,1.12,0,1.49,1,1.46,1.71,0,3.43,0,5.15,0,1.26,0,2,.62,1.92,1.56-.12,1.1-.87,1.47-1.9,1.47H54.52c-1.16,0-1.87-.6-1.89-1.49s.67-1.5,1.84-1.52c1.47,0,3,0,4.42,0,1,0,1.4-.27,1-1.46H58.18c-3.15,0-6.3,0-9.45,0a2.79,2.79,0,0,1-1.74-.65,1.39,1.39,0,0,1,.7-2.25,4.59,4.59,0,0,1,1.34-.13H77.26c.21,0,.41,0,.61,0,1,0,1.7.47,1.7,1.53s-.75,1.51-1.72,1.52c-3.23,0-6.46,0-9.7,0Z"/><path class="cls-5" d="M40.63,119.31c-.94,0-1.88,0-2.81,0s-1.67-.57-1.63-1.6a1.46,1.46,0,0,1,1.64-1.45c1.91,0,3.83,0,5.75,0a1.45,1.45,0,0,1,1.57,1.52,1.48,1.48,0,0,1-1.58,1.52C42.59,119.34,41.61,119.31,40.63,119.31Z"/><path class="cls-5" d="M85.71,116.24c.9,0,1.8,0,2.7,0a1.53,1.53,0,1,1,0,3c-1.92,0-3.84,0-5.75,0a1.45,1.45,0,0,1-1.6-1.5c0-1,.68-1.52,1.68-1.54S84.74,116.24,85.71,116.24Z"/><path class="cls-6" d="M7.25,113.26c-1.77,0-2.48-.4-2.52-1.43s.75-1.55,2.55-1.55c.41,0,.82,0,1.22,0a1.41,1.41,0,0,1,1.45,1.5,1.39,1.39,0,0,1-1.47,1.47Z"/><path class="cls-6" d="M118.85,113.26c-.36,0-.73,0-1.1,0a1.38,1.38,0,0,1-1.45-1.49,1.4,1.4,0,0,1,1.47-1.48c.7,0,1.39,0,2.09,0a1.5,1.5,0,0,1,1.65,1.45c.09.87-.63,1.49-1.68,1.53-.32,0-.65,0-1,0Z"/><path class="cls-7" d="M119.19,2.48a2.25,2.25,0,0,1,2.18,2.33,2.23,2.23,0,0,1-4.46-.09A2.25,2.25,0,0,1,119.19,2.48Zm-.06,3.82c.52-.71,1.11-1.18,1.05-1.52s-.71-.75-1.1-1.12c-.34.37-.93.72-1,1.11S118.64,5.6,119.13,6.3Z"/><path class="cls-8" d="M6.84,8.3l-.7,1.19-.39-.14L6.17,8,4.79,7.62l.11-.43H6.07L5.82,5.63l.4,0L6.9,6.81c.51-.31.34-1.43,1.48-1L7.53,7.13h1.4l.16.4L7.62,8l.73,1.16C7.27,9.75,7.44,8.59,6.84,8.3Z"/><path class="cls-9" d="M93,11.45l-1.13,1.11.26-1.41-1.3-.4.16-.38,1.44.18-.9-1.47c1.14-.59.87.79,1.36.86l1-1.09.34.3-.7,1.1,1.49.35L95,11l-1.41.11.64,1.13C93.58,12.61,93.58,12.61,93,11.45Z"/><path class="cls-1" d="M1.81,110.28a1.46,1.46,0,0,1,1.4,1.53,1.42,1.42,0,0,1-1.59,1.44,1.37,1.37,0,0,1-1.35-1.56A1.45,1.45,0,0,1,1.81,110.28Z"/><path class="cls-10" d="M65.81,11.8a1.44,1.44,0,0,1-1.35-1.46A1.46,1.46,0,0,1,66,8.83a1.41,1.41,0,0,1,1.43,1.51A1.52,1.52,0,0,1,65.81,11.8ZM65,10.35c.42.31.76.7.92.64s.48-.5.71-.77c-.25-.21-.5-.57-.75-.58S65.41,10,65,10.35Z"/><path class="cls-11" d="M32.4,25.87l-1.25-.16v-.35l1.13-.15L31.89,24l.32-.12.72,1,.6-1,.39.1-.4,1.3h1.13l.07.32-1.2.32.53.94-.22.29-.94-.81-.89.83-.26-.27Z"/><path class="cls-12" d="M9.92,33.63a1.45,1.45,0,0,1,1.54,1.43,1.39,1.39,0,0,1-1.37,1.55A1.44,1.44,0,0,1,8.5,35.15,1.47,1.47,0,0,1,9.92,33.63Zm1,1.53c-.4-.33-.65-.7-.91-.7s-.5.38-.75.59c.24.27.43.67.72.75S10.52,35.47,10.94,35.16Z"/><path class="cls-12" d="M36.33,4.38a1.35,1.35,0,0,1,1.31,1.46,1.39,1.39,0,0,1-1.42,1.51,1.51,1.51,0,0,1-1.55-1.53A1.55,1.55,0,0,1,36.33,4.38Zm.83,1.51c-.43-.34-.7-.71-.94-.7s-.52.38-.78.59c.25.27.45.66.76.77S36.71,6.21,37.16,5.89Z"/><path class="cls-13" d="M117.54,42.51a1.46,1.46,0,0,1-1.4-1.52,1.42,1.42,0,0,1,1.57-1.46,1.38,1.38,0,0,1,1.38,1.54A1.46,1.46,0,0,1,117.54,42.51Zm0-.48c.36-.48.72-.75.74-1.06s-.47-.68-.63-.64a1.18,1.18,0,0,0-.72.71C116.89,41.25,117.25,41.56,117.55,42Z"/><path class="cls-14" d="M102,27.58l-.3-.82c-.21-.43,1.15-.15-.09-1.32l2.19,1.24-.63.9Z"/></svg>