<svg id="Layer_1" data-name="Layer 1" xmlns="http://www.w3.org/2000/svg" viewBox="0 0 126.01 126.01"><defs><style>.cls-1{fill:#34495c;}.cls-2{fill:#304658;}.cls-3{fill:#14cfb4;}.cls-4{fill:#18d0b6;}.cls-5{fill:#32485a;}.cls-6{fill:#384d5f;}.cls-7{fill:#2bd4bb;}.cls-8{fill:#28d3bb;}.cls-9{fill:#415566;}.cls-10{fill:#405465;}.cls-11{fill:#3d5263;}.cls-12{fill:#3c5162;}.cls-13{fill:#2fd4bd;}.cls-14{fill:#11ceb3;}</style></defs><path class="cls-1" d="M0,110c.18-.14.36-.28.55-.41.75-.51,1.58-.54,2,.23a2.14,2.14,0,0,1,0,1.85c-.45.77-1.29.74-2,.23-.19-.13-.37-.28-.55-.43Z"/><path class="cls-2" d="M27.16,109.29c-4.53-4.32-5.87-9.7-6.53-15.35-.88-7.53-.32-15,.4-22.54.34-3.5.62-7-.28-10.49a15.83,15.83,0,0,0-3.18-6.16,10.1,10.1,0,0,1-2.38-8.68,5.55,5.55,0,0,1,3.23-4.22,14.22,14.22,0,0,1,11.9-.33,8.75,8.75,0,0,1,5.52,8.38c.17,5.34-1.45,10.31-3.06,15.3a38.62,38.62,0,0,0-1.54,18.31,3.23,3.23,0,0,0,.2-.65c.77-7.39,4.08-13.14,10.6-17A46,46,0,0,0,57.42,52.05c.47-.71.9-1.45,1.36-2.21a12.24,12.24,0,0,1-3.35-7.36,11.15,11.15,0,0,1,8.52-12c.33-.09.8-.36.86-.62,1.65-6.8,7.89-9.41,14.37-8.83a13.62,13.62,0,0,1,8.52,3.89L90,27.13A10.2,10.2,0,0,0,97.37,30c3.64,0,7.28-.09,10.92,0,2.09,0,2.45.31,2.4,2.37a26.9,26.9,0,0,1-.78,6.77c-1.31,4.62-5.35,7.49-10.34,7.88a37.54,37.54,0,0,0-5.7.76c-3.82.89-5.39,3.13-4.81,7s1.44,7.63,2.17,11.44c.58,3,1,6.08.14,9.11A14.42,14.42,0,0,1,90,78.74a28.24,28.24,0,0,0-3.39,18.58c0,.21.09.41.09.61,0,2.65.86,4.75,3.67,5.65a5.65,5.65,0,0,1,1.88,1.35,4,4,0,0,1,1.44,4.36h7.77c3.81,0,7.62,0,11.42,0a2.13,2.13,0,0,1,1.54,1c.18.36-.17,1.16-.52,1.56s-.9.31-1.37.31c-3.35,0-6.71,0-10.07,0H13.77c-.37,0-.74,0-1.11,0a1.48,1.48,0,0,1,0-3c1.27-.06,2.54,0,3.81,0ZM61.08,51.93c-.66,1-1.41,2.19-2.26,3.33a50.51,50.51,0,0,1-15.3,13.25,17.26,17.26,0,0,0-8.71,12.41,25.34,25.34,0,0,0,1.53,13.72c.32.86.41,1.62-.43,2.18a1.53,1.53,0,0,1-2.17-.46,31.33,31.33,0,0,1-3-3.88,25.58,25.58,0,0,1-3-11.65,48.77,48.77,0,0,1,3-19.25,33.35,33.35,0,0,0,2.08-11.53A6.09,6.09,0,0,0,28.42,44a12,12,0,0,0-7.36,0c-2.52.76-3.5,2.22-3,4.81a8.22,8.22,0,0,0,1.48,3.55c4.24,5,5.15,10.78,4.64,17-.4,4.89-.79,9.79-1,14.69A47.21,47.21,0,0,0,24.8,99.65c2.11,7,6,9.83,12.84,9.69,9.16-.19,18.33,0,27.5,0h1.41a3.68,3.68,0,0,0-2.71-3.61,20,20,0,0,0-5.16-.79,4.22,4.22,0,0,1-3.91-2,13,13,0,0,1-1.41-3.09,2.52,2.52,0,0,1,.38-2.08c.35-.37,1.32-.22,2-.17,1.66.11,3.35.61,5,.39a10.44,10.44,0,0,0-1.14-20.76c-1.29-.07-1.92-.61-1.88-1.6s.69-1.42,2-1.39a12.21,12.21,0,0,1,6.59,2,13.25,13.25,0,0,1,6.21,12.89,2.31,2.31,0,0,0,.33,1.63,15.16,15.16,0,0,1,4.29,6.48c1,2.89,1.71,5.88,2.73,8.76a4.71,4.71,0,0,0,1.89,2.53c3,1.55,6.07.68,9.34-.29a9.14,9.14,0,0,0-1.25-1.32,19.53,19.53,0,0,0-2.52-1.51,5.12,5.12,0,0,1-3.15-4.07c-.16-1.14-.42-2.25-.57-3.39-1-7.26-.08-14.19,3.75-20.58a10.32,10.32,0,0,0,1.39-7c-.6-3.87-1.45-7.7-2.15-11.56A32.66,32.66,0,0,1,86,54.18c-.18-5.16,2.18-8.3,7.22-9.43,2.42-.55,5-.61,7.4-1,4-.71,7-4.21,6.85-7.76-1.78-.54-2.22-1-2.81-3-1.29,0-2.59,0-3.89,0-1.8,0-3.61,0-5.4-.11-3.87-.33-6.72-2.56-9.28-5.25C82.45,23.7,78,23.27,73.2,24.62a7.52,7.52,0,0,0-5.43,5.77c.37.17.67.29,1,.44a1.5,1.5,0,0,1-1.12,2.77,7.1,7.1,0,0,0-7.76,3,8.69,8.69,0,0,0,3.4,12.65,11.89,11.89,0,0,0,6.94,1c5-.7,7.85-4.65,6.78-9.61a38.08,38.08,0,0,0-1.74-5.08c-.4-1.08-.23-1.91.65-2.27a1.43,1.43,0,0,1,2.05,1,41,41,0,0,1,1.81,4.8c1.61,6.28-1,11.66-6.75,13.52a15.69,15.69,0,0,1-5.78.67A37.55,37.55,0,0,1,61.08,51.93Zm16.68,57.3L74.73,99a15.87,15.87,0,0,1-6.66,5.64c.61,1.55,1.19,3,1.82,4.57ZM57.37,101l-.15.36a6.7,6.7,0,0,0,1.4.5,31.38,31.38,0,0,1,4.25.43,6.08,6.08,0,0,0,4.48-.57,12.79,12.79,0,0,0,5.51-5.41,1.08,1.08,0,0,0,0-1,24.14,24.14,0,0,0-1.52-1.94C68.23,99,63.61,101.48,57.37,101Z"/><path class="cls-3" d="M66.08,118.31c-.32,1.1,0,1.48.94,1.45,1.67-.05,3.35,0,5,0,1.35,0,2.1.59,2.07,1.56s-.76,1.48-2,1.48H54.42c-1.27,0-2-.55-2-1.47s.71-1.55,2.06-1.57,2.87,0,4.3,0c1,0,1.25-.36.94-1.39-.38,0-.81-.06-1.25-.06H48.75c-.41,0-.93.09-1.2-.12-.46-.37-1-.93-1-1.41s.6-1,1.07-1.4c.27-.21.79-.12,1.19-.12H77c.36,0,.84-.11,1.07.08.49.39,1.17,1,1.18,1.44s-.67,1.06-1.16,1.44c-.27.2-.79.09-1.2.1H66.08Z"/><path class="cls-4" d="M85.34,115.25c.94,0,1.87,0,2.81,0s1.68.54,1.67,1.56a1.46,1.46,0,0,1-1.61,1.48c-1.92,0-3.83,0-5.75,0a1.45,1.45,0,0,1-1.6-1.49c0-1,.67-1.53,1.67-1.56S84.4,115.25,85.34,115.25Z"/><path class="cls-4" d="M40.41,118.31c-.9,0-1.8,0-2.69,0-1.12,0-1.88-.69-1.79-1.57a1.55,1.55,0,0,1,1.76-1.48c1.83,0,3.67,0,5.5,0,1,0,1.7.49,1.71,1.51s-.7,1.51-1.68,1.54S41.34,118.31,40.41,118.31Z"/><path class="cls-5" d="M7,112.27c-1.82,0-2.59-.46-2.55-1.53s.78-1.45,2.53-1.45c.41,0,.82,0,1.22,0a1.42,1.42,0,0,1,1.48,1.48,1.38,1.38,0,0,1-1.46,1.48C7.85,112.29,7.44,112.27,7,112.27Z"/><path class="cls-5" d="M118.59,112.27h-.49c-1.38,0-2.1-.53-2.07-1.51s.73-1.45,2-1.47h1.47c1,0,1.72.45,1.74,1.47s-.65,1.53-1.68,1.51Z"/><path class="cls-6" d="M121.12,5.27a2.2,2.2,0,0,1-2.29,2.21,2.23,2.23,0,0,1-2.17-2.22,2.23,2.23,0,1,1,4.46,0Zm-.67-.11c-.72-.46-1.17-1-1.56-.94s-.72.65-1.08,1c.39.38.74,1,1.17,1.06S119.77,5.71,120.45,5.16Z"/><path class="cls-7" d="M5.93,9.16,4.56,8.9l.07-.44,1.21-.1L5.55,6.87l.41,0L6.63,8C7.21,7.82,7,6.6,8.14,7L7.29,8.36l1.48.1.08.42-1.51.33L8,10.32c-.64.32-.64.32-1.37-.84l-.74,1.23-.41-.09Z"/><path class="cls-8" d="M93.45,11.65c.4.22,1.25-.51,1.34.64H93.26l.73,1.2c-.67.36-.67.36-1.28-.93l-.79,1.34-.41-.1L92,12.37l-1.37-.28.11-.43,1.23.14-.56-1.51c1-.53.82.74,1.37,1l.66-1.17c.55.41.55.41-.07,1.44l-.16.14Z"/><path class="cls-1" d="M125.77,110.77c-.1.87-.53,1.46-1.45,1.48a1.35,1.35,0,0,1-1.52-1.38,1.42,1.42,0,0,1,1.48-1.56A1.47,1.47,0,0,1,125.77,110.77Z"/><path class="cls-9" d="M65.71,19.8a1.5,1.5,0,0,1,3-.07,1.51,1.51,0,0,1-1.53,1.57A1.49,1.49,0,0,1,65.71,19.8Zm2.48-.07c-.48-.29-.78-.62-1-.58a1,1,0,0,0-.6.69,1,1,0,0,0,.69.61C67.5,20.45,67.76,20.08,68.19,19.73Z"/><path class="cls-10" d="M10.18,36.43a1.42,1.42,0,0,1-1.46,1.48,1.42,1.42,0,0,1-1.53-1.42,1.51,1.51,0,0,1,1.53-1.56A1.47,1.47,0,0,1,10.18,36.43Zm-1.46-1c-.34.42-.75.72-.71.93s.46.51.71.76c.22-.24.6-.46.62-.72S9,35.88,8.72,35.44Z"/><path class="cls-11" d="M45.49,9.41a1.37,1.37,0,0,1-1.43,1.47,1.41,1.41,0,0,1-1.54-1.4A1.51,1.51,0,0,1,44,7.91,1.45,1.45,0,0,1,45.49,9.41ZM45,9.49c-.43-.37-.72-.81-.91-.76s-.55.45-.82.7c.24.22.45.6.72.64S44.54,9.78,45,9.49Z"/><path class="cls-12" d="M117.29,43.75a1.41,1.41,0,0,1-1.39-1.51,1.37,1.37,0,0,1,1.45-1.47,1.45,1.45,0,0,1,1.5,1.55A1.49,1.49,0,0,1,117.29,43.75Zm1.06-1.58c-.46-.29-.81-.66-1-.6s-.47.52-.69.8c.26.2.53.57.78.55S118,42.53,118.35,42.17Z"/><path class="cls-13" d="M32.75,27.7l-1.27.14.64,1-.29.32-.95-.94-.61.94-.33-.1.37-1.24-1.13-.14,0-.38,1.13-.1L29.91,26l.34-.15.69,1,.72-1L32,26l-.38,1.23,1.15.18Z"/><path class="cls-14" d="M67.82,47.16A6.4,6.4,0,0,1,64,45.37c-.84-.78-1-1.7-.32-2.35a1.46,1.46,0,0,1,2.27.06,3.49,3.49,0,0,0,4,.8,4.2,4.2,0,0,0,1.58-1.58c.63-1,1.4-1.4,2.2-.93s.91,1.34.54,2.24C73.3,45.81,71.17,47.16,67.82,47.16Z"/><path class="cls-3" d="M84.52,35.9a1.43,1.43,0,0,1-1.43-1.49A1.47,1.47,0,0,1,84.69,33a1.39,1.39,0,0,1,1.36,1.56A1.36,1.36,0,0,1,84.52,35.9Z"/></svg>